<svg xmlns="http://www.w3.org/2000/svg" xmlns:xlink="http://www.w3.org/1999/xlink" width="500" zoomAndPan="magnify" viewBox="0 0 375 374.999991" height="500" preserveAspectRatio="xMidYMid meet" version="1.0"><defs><g/><clipPath id="0c34b202ef"><path d="M 83.667969 153 L 135 153 L 135 202.820312 L 83.667969 202.820312 Z M 83.667969 153 " clip-rule="nonzero"/></clipPath><clipPath id="fa2b291de2"><path d="M 109 130.820312 L 155.667969 130.820312 L 155.667969 183 L 109 183 Z M 109 130.820312 " clip-rule="nonzero"/></clipPath><clipPath id="5fdb7efd01"><path d="M 99 167 L 135 167 L 135 202.820312 L 99 202.820312 Z M 99 167 " clip-rule="nonzero"/></clipPath><clipPath id="7bc5653c57"><path d="M 120 144 L 155.667969 144 L 155.667969 183 L 120 183 Z M 120 144 " clip-rule="nonzero"/></clipPath></defs><g fill="#1e3a8a" fill-opacity="1"><g transform="translate(155.680835, 181.077072)"><g><path d="M 17.09375 -18.484375 L 33.5 0 L 24.53125 0 L 12.484375 -13.875 L 9.546875 -10.890625 L 9.546875 0 L 2.25 0 L 2.25 -34.03125 L 9.546875 -34.03125 L 9.546875 -20.25 L 23.234375 -34.03125 L 32.546875 -34.03125 Z M 17.09375 -18.484375 "/></g></g></g><g fill="#1e3a8a" fill-opacity="1"><g transform="translate(188.896771, 181.077072)"><g><path d="M 27.078125 -23.8125 L 27.078125 0 L 21.359375 0 L 20.6875 -2.546875 C 19.757812 -1.296875 18.644531 -0.460938 17.34375 -0.046875 C 16.050781 0.367188 14.703125 0.578125 13.296875 0.578125 C 11.597656 0.578125 10.035156 0.25 8.609375 -0.40625 C 7.191406 -1.0625 5.953125 -1.957031 4.890625 -3.09375 C 3.835938 -4.226562 3.015625 -5.554688 2.421875 -7.078125 C 1.828125 -8.597656 1.53125 -10.222656 1.53125 -11.953125 C 1.53125 -13.679688 1.828125 -15.304688 2.421875 -16.828125 C 3.015625 -18.347656 3.835938 -19.675781 4.890625 -20.8125 C 5.953125 -21.945312 7.191406 -22.84375 8.609375 -23.5 C 10.035156 -24.15625 11.597656 -24.484375 13.296875 -24.484375 C 14.828125 -24.484375 16.234375 -24.242188 17.515625 -23.765625 C 18.796875 -23.285156 19.851562 -22.515625 20.6875 -21.453125 L 21.359375 -23.8125 Z M 20.453125 -11.859375 C 20.453125 -13.109375 20.28125 -14.15625 19.9375 -15 C 19.601562 -15.84375 19.15625 -16.53125 18.59375 -17.0625 C 18.039062 -17.59375 17.382812 -17.976562 16.625 -18.21875 C 15.875 -18.457031 15.066406 -18.578125 14.203125 -18.578125 C 13.335938 -18.578125 12.53125 -18.398438 11.78125 -18.046875 C 11.03125 -17.691406 10.363281 -17.21875 9.78125 -16.625 C 9.207031 -16.039062 8.757812 -15.335938 8.4375 -14.515625 C 8.125 -13.703125 7.96875 -12.847656 7.96875 -11.953125 C 7.96875 -11.023438 8.125 -10.160156 8.4375 -9.359375 C 8.757812 -8.554688 9.207031 -7.859375 9.78125 -7.265625 C 10.363281 -6.679688 11.03125 -6.210938 11.78125 -5.859375 C 12.53125 -5.503906 13.335938 -5.328125 14.203125 -5.328125 C 15.929688 -5.328125 17.394531 -5.863281 18.59375 -6.9375 C 19.800781 -8.007812 20.421875 -9.648438 20.453125 -11.859375 Z M 20.453125 -11.859375 "/></g></g></g><g fill="#1e3a8a" fill-opacity="1"><g transform="translate(217.120727, 181.077072)"><g><path d="M 2.359375 -35.09375 L 8.96875 -35.09375 L 8.96875 0 L 2.359375 0 Z M 2.359375 -35.09375 "/></g></g></g><g fill="#1e3a8a" fill-opacity="1"><g transform="translate(227.056704, 181.077072)"><g><path d="M 9.359375 0 L 2.734375 0 L 2.734375 -23.8125 L 9.359375 -23.8125 Z M 6.046875 -27.078125 C 5.023438 -27.078125 4.160156 -27.425781 3.453125 -28.125 C 2.753906 -28.832031 2.40625 -29.695312 2.40625 -30.71875 C 2.40625 -31.738281 2.753906 -32.609375 3.453125 -33.328125 C 4.160156 -34.054688 5.023438 -34.421875 6.046875 -34.421875 C 7.066406 -34.421875 7.929688 -34.054688 8.640625 -33.328125 C 9.347656 -32.609375 9.703125 -31.738281 9.703125 -30.71875 C 9.703125 -29.695312 9.347656 -28.832031 8.640625 -28.125 C 7.929688 -27.425781 7.066406 -27.078125 6.046875 -27.078125 Z M 6.046875 -27.078125 "/></g></g></g><g fill="#1e3a8a" fill-opacity="1"><g transform="translate(238.240682, 181.077072)"><g><path d="M 15.9375 -24.484375 C 17.601562 -24.484375 19.15625 -24.15625 20.59375 -23.5 C 22.03125 -22.84375 23.273438 -21.945312 24.328125 -20.8125 C 25.390625 -19.675781 26.21875 -18.347656 26.8125 -16.828125 C 27.40625 -15.304688 27.703125 -13.679688 27.703125 -11.953125 C 27.703125 -10.222656 27.40625 -8.597656 26.8125 -7.078125 C 26.21875 -5.554688 25.390625 -4.226562 24.328125 -3.09375 C 23.273438 -1.957031 22.03125 -1.0625 20.59375 -0.40625 C 19.15625 0.25 17.601562 0.578125 15.9375 0.578125 C 14.53125 0.578125 13.175781 0.332031 11.875 -0.15625 C 10.582031 -0.65625 9.566406 -1.289062 8.828125 -2.0625 L 7.875 0 L 2.203125 0 L 2.203125 -35.046875 L 8.828125 -35.046875 L 8.828125 -21.890625 C 10.648438 -23.617188 13.019531 -24.484375 15.9375 -24.484375 Z M 15.03125 -5.328125 C 15.882812 -5.328125 16.6875 -5.503906 17.4375 -5.859375 C 18.195312 -6.210938 18.863281 -6.679688 19.4375 -7.265625 C 20.007812 -7.859375 20.457031 -8.554688 20.78125 -9.359375 C 21.101562 -10.160156 21.265625 -11.023438 21.265625 -11.953125 C 21.265625 -12.847656 21.101562 -13.703125 20.78125 -14.515625 C 20.457031 -15.335938 20.007812 -16.039062 19.4375 -16.625 C 18.863281 -17.21875 18.195312 -17.691406 17.4375 -18.046875 C 16.6875 -18.398438 15.882812 -18.578125 15.03125 -18.578125 C 14.164062 -18.578125 13.351562 -18.457031 12.59375 -18.21875 C 11.84375 -17.976562 11.1875 -17.59375 10.625 -17.0625 C 10.070312 -16.53125 9.632812 -15.84375 9.3125 -15 C 8.988281 -14.15625 8.828125 -13.109375 8.828125 -11.859375 C 8.828125 -10.734375 8.988281 -9.765625 9.3125 -8.953125 C 9.632812 -8.140625 10.070312 -7.46875 10.625 -6.9375 C 11.1875 -6.40625 11.84375 -6.003906 12.59375 -5.734375 C 13.351562 -5.460938 14.164062 -5.328125 15.03125 -5.328125 Z M 15.03125 -5.328125 "/></g></g></g><g fill="#1e3a8a" fill-opacity="1"><g transform="translate(265.648628, 181.077072)"><g><path d="M 8.6875 -20.5 C 9.007812 -21.007812 9.378906 -21.492188 9.796875 -21.953125 C 10.210938 -22.421875 10.707031 -22.835938 11.28125 -23.203125 C 11.851562 -23.578125 12.507812 -23.875 13.25 -24.09375 C 13.988281 -24.320312 14.820312 -24.4375 15.75 -24.4375 C 16.832031 -24.4375 18.09375 -24.242188 19.53125 -23.859375 L 18.90625 -17.953125 C 18.5625 -18.015625 18.210938 -18.09375 17.859375 -18.1875 C 17.566406 -18.25 17.242188 -18.304688 16.890625 -18.359375 C 16.546875 -18.410156 16.226562 -18.4375 15.9375 -18.4375 C 14.914062 -18.4375 13.960938 -18.289062 13.078125 -18 C 12.203125 -17.707031 11.441406 -17.304688 10.796875 -16.796875 C 10.160156 -16.285156 9.648438 -15.671875 9.265625 -14.953125 C 8.878906 -14.234375 8.6875 -13.457031 8.6875 -12.625 L 8.6875 0 L 2.0625 0 L 2.0625 -23.8125 L 8.0625 -23.8125 Z M 8.6875 -20.5 "/></g></g></g><g fill="#1e3a8a" fill-opacity="1"><g transform="translate(284.464591, 181.077072)"><g><path d="M 13.921875 -24.484375 C 15.710938 -24.484375 17.34375 -24.117188 18.8125 -23.390625 C 20.289062 -22.671875 21.554688 -21.726562 22.609375 -20.5625 C 23.660156 -19.394531 24.472656 -18.050781 25.046875 -16.53125 C 25.628906 -15.007812 25.921875 -13.453125 25.921875 -11.859375 C 25.921875 -10.898438 25.789062 -9.875 25.53125 -8.78125 L 8.546875 -8.78125 C 9.179688 -7.695312 10.09375 -6.773438 11.28125 -6.015625 C 12.46875 -5.265625 13.75 -4.890625 15.125 -4.890625 C 16.5 -4.890625 17.703125 -5 18.734375 -5.21875 C 19.773438 -5.445312 20.765625 -5.738281 21.703125 -6.09375 L 23.90625 -2.015625 C 22.71875 -1.179688 21.363281 -0.539062 19.84375 -0.09375 C 18.320312 0.351562 16.695312 0.578125 14.96875 0.578125 C 13.082031 0.578125 11.320312 0.25 9.6875 -0.40625 C 8.0625 -1.0625 6.640625 -1.945312 5.421875 -3.0625 C 4.203125 -4.1875 3.238281 -5.515625 2.53125 -7.046875 C 1.832031 -8.585938 1.484375 -10.222656 1.484375 -11.953125 C 1.484375 -13.648438 1.800781 -15.257812 2.4375 -16.78125 C 3.082031 -18.300781 3.972656 -19.628906 5.109375 -20.765625 C 6.242188 -21.898438 7.5625 -22.800781 9.0625 -23.46875 C 10.570312 -24.144531 12.191406 -24.484375 13.921875 -24.484375 Z M 19.34375 -13.921875 C 18.957031 -15.296875 18.269531 -16.414062 17.28125 -17.28125 C 16.289062 -18.144531 15.171875 -18.578125 13.921875 -18.578125 C 12.640625 -18.578125 11.476562 -18.144531 10.4375 -17.28125 C 9.394531 -16.414062 8.679688 -15.296875 8.296875 -13.921875 Z M 19.34375 -13.921875 "/></g></g></g><g fill="#4f4c4c" fill-opacity="1"><g transform="translate(250.983107, 200.517071)"><g><path d="M 16.421875 -3.84375 C 16.304688 -3.476562 16.179688 -3.117188 16.046875 -2.765625 C 15.921875 -2.421875 15.789062 -2.09375 15.65625 -1.78125 C 15.53125 -1.476562 15.398438 -1.191406 15.265625 -0.921875 C 15.128906 -0.660156 15.003906 -0.429688 14.890625 -0.234375 C 14.785156 -0.273438 14.691406 -0.300781 14.609375 -0.3125 C 14.523438 -0.320312 14.441406 -0.328125 14.359375 -0.328125 C 14.253906 -0.328125 14.128906 -0.304688 13.984375 -0.265625 C 13.941406 -0.253906 13.851562 -0.234375 13.71875 -0.203125 C 13.582031 -0.171875 13.421875 -0.140625 13.234375 -0.109375 C 13.054688 -0.078125 12.863281 -0.0390625 12.65625 0 C 12.445312 0.03125 12.242188 0.0625 12.046875 0.09375 C 11.847656 0.132812 11.664062 0.164062 11.5 0.1875 C 11.34375 0.21875 11.21875 0.242188 11.125 0.265625 C 10.644531 0.367188 10.109375 0.410156 9.515625 0.390625 C 8.035156 0.390625 6.671875 0.0859375 5.421875 -0.515625 C 4.742188 -0.835938 4.144531 -1.234375 3.625 -1.703125 C 3.101562 -2.179688 2.65625 -2.71875 2.28125 -3.3125 C 1.570312 -4.4375 1.21875 -5.734375 1.21875 -7.203125 C 1.21875 -7.984375 1.304688 -8.707031 1.484375 -9.375 C 1.660156 -10.050781 1.929688 -10.695312 2.296875 -11.3125 C 2.648438 -11.894531 3.085938 -12.414062 3.609375 -12.875 C 4.128906 -13.34375 4.71875 -13.757812 5.375 -14.125 C 6.03125 -14.476562 6.722656 -14.734375 7.453125 -14.890625 C 8.179688 -15.046875 8.957031 -15.128906 9.78125 -15.140625 C 10.425781 -15.140625 11.082031 -15.078125 11.75 -14.953125 C 12.414062 -14.835938 13.054688 -14.675781 13.671875 -14.46875 C 13.910156 -14.394531 14.128906 -14.328125 14.328125 -14.265625 C 14.523438 -14.210938 14.65625 -14.1875 14.71875 -14.1875 C 14.957031 -14.1875 15.097656 -14.238281 15.140625 -14.34375 L 15.546875 -14.34375 L 15.765625 -10.8125 L 15.234375 -10.8125 C 14.941406 -11.570312 14.546875 -12.21875 14.046875 -12.75 C 13.546875 -13.28125 12.945312 -13.695312 12.25 -14 C 11.882812 -14.144531 11.503906 -14.253906 11.109375 -14.328125 C 10.722656 -14.398438 10.316406 -14.4375 9.890625 -14.4375 C 7.253906 -14.4375 5.40625 -13.359375 4.34375 -11.203125 C 4.09375 -10.691406 3.898438 -10.144531 3.765625 -9.5625 C 3.628906 -8.976562 3.5625 -8.351562 3.5625 -7.6875 C 3.5625 -6.644531 3.726562 -5.691406 4.0625 -4.828125 C 4.394531 -3.960938 4.878906 -3.160156 5.515625 -2.421875 C 6.160156 -1.710938 6.878906 -1.1875 7.671875 -0.84375 C 8.472656 -0.5 9.304688 -0.328125 10.171875 -0.328125 C 12.691406 -0.328125 14.601562 -1.5 15.90625 -3.84375 Z M 16.421875 -3.84375 "/></g></g></g><g fill="#4f4c4c" fill-opacity="1"><g transform="translate(267.856435, 200.517071)"><g><path d="M 9.453125 -4.078125 C 9.453125 -4.753906 9.359375 -5.390625 9.171875 -5.984375 C 8.984375 -6.585938 8.726562 -7.113281 8.40625 -7.5625 C 8.082031 -8.019531 7.703125 -8.378906 7.265625 -8.640625 C 6.835938 -8.910156 6.375 -9.046875 5.875 -9.046875 C 5.5 -9.046875 5.132812 -8.945312 4.78125 -8.75 C 4.425781 -8.5625 4.109375 -8.300781 3.828125 -7.96875 C 3.554688 -7.644531 3.332031 -7.265625 3.15625 -6.828125 C 2.988281 -6.398438 2.90625 -5.941406 2.90625 -5.453125 C 2.90625 -4.503906 3.066406 -3.660156 3.390625 -2.921875 C 3.710938 -2.179688 4.160156 -1.570312 4.734375 -1.09375 C 5.003906 -0.882812 5.296875 -0.71875 5.609375 -0.59375 C 5.921875 -0.476562 6.226562 -0.421875 6.53125 -0.421875 C 6.894531 -0.421875 7.25 -0.5 7.59375 -0.65625 C 7.945312 -0.820312 8.257812 -1.0625 8.53125 -1.375 C 8.8125 -1.695312 9.035156 -2.082031 9.203125 -2.53125 C 9.367188 -2.988281 9.453125 -3.503906 9.453125 -4.078125 Z M 11.328125 -4.6875 C 11.328125 -3.976562 11.191406 -3.316406 10.921875 -2.703125 C 10.648438 -2.085938 10.28125 -1.554688 9.8125 -1.109375 C 9.351562 -0.671875 8.816406 -0.320312 8.203125 -0.0625 C 7.597656 0.1875 6.957031 0.3125 6.28125 0.3125 C 5.269531 0.3125 4.382812 0.101562 3.625 -0.3125 C 2.863281 -0.738281 2.238281 -1.347656 1.75 -2.140625 C 1.53125 -2.484375 1.363281 -2.875 1.25 -3.3125 C 1.132812 -3.757812 1.070312 -4.195312 1.0625 -4.625 C 1.0625 -5.375 1.195312 -6.054688 1.46875 -6.671875 C 1.738281 -7.296875 2.101562 -7.832031 2.5625 -8.28125 C 3.03125 -8.726562 3.578125 -9.078125 4.203125 -9.328125 C 4.828125 -9.585938 5.492188 -9.71875 6.203125 -9.71875 C 6.941406 -9.71875 7.613281 -9.601562 8.21875 -9.375 C 8.820312 -9.144531 9.375 -8.785156 9.875 -8.296875 C 10.84375 -7.335938 11.328125 -6.132812 11.328125 -4.6875 Z M 11.328125 -4.6875 "/></g></g></g><g fill="#4f4c4c" fill-opacity="1"><g transform="translate(279.799981, 200.517071)"><g><path d="M 10.578125 -3.71875 C 10.578125 -3.101562 10.445312 -2.546875 10.1875 -2.046875 C 9.9375 -1.546875 9.59375 -1.113281 9.15625 -0.75 C 8.726562 -0.382812 8.21875 -0.101562 7.625 0.09375 C 7.039062 0.289062 6.40625 0.390625 5.71875 0.390625 C 5.445312 0.390625 5.09375 0.34375 4.65625 0.25 C 4.21875 0.164062 3.753906 0.0625 3.265625 -0.0625 C 3.023438 -0.125 2.835938 -0.171875 2.703125 -0.203125 C 2.566406 -0.234375 2.472656 -0.25 2.421875 -0.25 C 2.265625 -0.25 2.117188 -0.164062 1.984375 0 L 1.546875 0 L 1.046875 -3.703125 L 1.59375 -3.703125 C 1.707031 -3.203125 1.890625 -2.75 2.140625 -2.34375 C 2.390625 -1.9375 2.6875 -1.585938 3.03125 -1.296875 C 3.375 -1.003906 3.753906 -0.773438 4.171875 -0.609375 C 4.597656 -0.453125 5.046875 -0.375 5.515625 -0.375 C 5.960938 -0.375 6.378906 -0.441406 6.765625 -0.578125 C 7.148438 -0.710938 7.488281 -0.898438 7.78125 -1.140625 C 8.070312 -1.390625 8.300781 -1.679688 8.46875 -2.015625 C 8.632812 -2.347656 8.71875 -2.710938 8.71875 -3.109375 C 8.71875 -3.484375 8.597656 -3.863281 8.359375 -4.25 C 8.117188 -4.644531 7.789062 -5.035156 7.375 -5.421875 C 7.21875 -5.554688 6.929688 -5.753906 6.515625 -6.015625 C 6.109375 -6.285156 5.601562 -6.613281 5 -7 C 4.425781 -7.382812 3.921875 -7.75 3.484375 -8.09375 C 3.046875 -8.4375 2.691406 -8.703125 2.421875 -8.890625 C 2.179688 -9.078125 1.988281 -9.285156 1.84375 -9.515625 C 1.695312 -9.753906 1.578125 -10 1.484375 -10.25 C 1.390625 -10.5 1.316406 -10.742188 1.265625 -10.984375 C 1.222656 -11.234375 1.1875 -11.460938 1.15625 -11.671875 C 1.15625 -12.117188 1.253906 -12.550781 1.453125 -12.96875 C 1.648438 -13.382812 1.929688 -13.753906 2.296875 -14.078125 C 2.671875 -14.398438 3.117188 -14.65625 3.640625 -14.84375 C 4.160156 -15.039062 4.742188 -15.140625 5.390625 -15.140625 C 5.773438 -15.140625 6.171875 -15.101562 6.578125 -15.03125 C 6.992188 -14.957031 7.398438 -14.847656 7.796875 -14.703125 C 7.960938 -14.648438 8.117188 -14.613281 8.265625 -14.59375 C 8.410156 -14.570312 8.523438 -14.5625 8.609375 -14.5625 C 8.753906 -14.5625 8.882812 -14.632812 9 -14.78125 L 9.46875 -14.78125 L 9.84375 -11.703125 L 9.375 -11.703125 C 9.207031 -12.109375 8.992188 -12.476562 8.734375 -12.8125 C 8.472656 -13.15625 8.175781 -13.445312 7.84375 -13.6875 C 7.519531 -13.9375 7.164062 -14.125 6.78125 -14.25 C 6.394531 -14.382812 6.003906 -14.453125 5.609375 -14.453125 C 5.234375 -14.453125 4.890625 -14.398438 4.578125 -14.296875 C 4.265625 -14.191406 3.988281 -14.046875 3.75 -13.859375 C 3.519531 -13.679688 3.335938 -13.457031 3.203125 -13.1875 C 3.078125 -12.914062 3.015625 -12.613281 3.015625 -12.28125 C 3.015625 -11.914062 3.125 -11.546875 3.34375 -11.171875 C 3.5625 -10.804688 3.894531 -10.4375 4.34375 -10.0625 C 4.457031 -9.96875 4.71875 -9.785156 5.125 -9.515625 C 5.53125 -9.253906 6.050781 -8.925781 6.6875 -8.53125 C 6.957031 -8.351562 7.222656 -8.175781 7.484375 -8 C 7.742188 -7.820312 7.988281 -7.644531 8.21875 -7.46875 C 8.445312 -7.300781 8.65625 -7.140625 8.84375 -6.984375 C 9.03125 -6.828125 9.179688 -6.691406 9.296875 -6.578125 C 10.148438 -5.671875 10.578125 -4.71875 10.578125 -3.71875 Z M 10.578125 -3.71875 "/></g></g></g><g fill="#4f4c4c" fill-opacity="1"><g transform="translate(290.991707, 200.517071)"><g><path d="M 7.578125 -6.703125 C 7.503906 -7.035156 7.394531 -7.347656 7.25 -7.640625 C 7.113281 -7.941406 6.945312 -8.203125 6.75 -8.421875 C 6.5625 -8.648438 6.34375 -8.828125 6.09375 -8.953125 C 5.84375 -9.085938 5.582031 -9.15625 5.3125 -9.15625 C 5.019531 -9.15625 4.75 -9.097656 4.5 -8.984375 C 4.257812 -8.867188 4.035156 -8.703125 3.828125 -8.484375 C 3.617188 -8.273438 3.429688 -8.015625 3.265625 -7.703125 C 3.097656 -7.398438 2.960938 -7.066406 2.859375 -6.703125 Z M 9.65625 -5.984375 L 2.78125 -5.984375 C 2.71875 -5.554688 2.6875 -5.242188 2.6875 -5.046875 C 2.6875 -4.546875 2.769531 -4.054688 2.9375 -3.578125 C 3.113281 -3.109375 3.359375 -2.6875 3.671875 -2.3125 C 3.984375 -1.945312 4.359375 -1.648438 4.796875 -1.421875 C 5.234375 -1.191406 5.710938 -1.0625 6.234375 -1.03125 C 6.765625 -1.039062 7.285156 -1.171875 7.796875 -1.421875 C 8.316406 -1.679688 8.796875 -2.070312 9.234375 -2.59375 L 9.546875 -2.203125 C 8.253906 -0.523438 6.832031 0.3125 5.28125 0.3125 C 4.476562 0.3125 3.769531 0.101562 3.15625 -0.3125 C 2.539062 -0.738281 2.039062 -1.351562 1.65625 -2.15625 C 1.488281 -2.519531 1.359375 -2.90625 1.265625 -3.3125 C 1.171875 -3.726562 1.125 -4.15625 1.125 -4.59375 C 1.125 -5.25 1.226562 -5.882812 1.4375 -6.5 C 1.644531 -7.113281 1.945312 -7.660156 2.34375 -8.140625 C 2.738281 -8.617188 3.21875 -9 3.78125 -9.28125 C 4.351562 -9.570312 5 -9.71875 5.71875 -9.71875 C 6.40625 -9.71875 6.984375 -9.625 7.453125 -9.4375 C 7.929688 -9.257812 8.296875 -8.984375 8.546875 -8.609375 C 8.660156 -8.378906 8.804688 -8.097656 8.984375 -7.765625 C 9.160156 -7.441406 9.382812 -7.0625 9.65625 -6.625 Z M 9.65625 -5.984375 "/></g></g></g><g fill="#4f4c4c" fill-opacity="1"><g transform="translate(300.959041, 200.517071)"><g><path d="M 9.34375 -2.234375 C 8.300781 -0.535156 6.878906 0.3125 5.078125 0.3125 C 4.515625 0.3125 3.988281 0.203125 3.5 -0.015625 C 3.019531 -0.242188 2.601562 -0.5625 2.25 -0.96875 C 1.894531 -1.382812 1.613281 -1.875 1.40625 -2.4375 C 1.207031 -3.007812 1.097656 -3.632812 1.078125 -4.3125 C 1.078125 -5 1.207031 -5.664062 1.46875 -6.3125 C 1.726562 -6.96875 2.09375 -7.546875 2.5625 -8.046875 C 3.039062 -8.546875 3.617188 -8.945312 4.296875 -9.25 C 4.972656 -9.5625 5.722656 -9.71875 6.546875 -9.71875 C 6.910156 -9.71875 7.253906 -9.6875 7.578125 -9.625 C 7.898438 -9.570312 8.1875 -9.484375 8.4375 -9.359375 C 8.6875 -9.242188 8.878906 -9.097656 9.015625 -8.921875 C 9.160156 -8.753906 9.234375 -8.550781 9.234375 -8.3125 C 9.234375 -7.800781 8.992188 -7.546875 8.515625 -7.546875 C 8.148438 -7.546875 7.71875 -7.773438 7.21875 -8.234375 C 6.957031 -8.492188 6.695312 -8.679688 6.4375 -8.796875 C 6.1875 -8.921875 5.953125 -8.984375 5.734375 -8.984375 C 5.367188 -8.984375 5.007812 -8.878906 4.65625 -8.671875 C 4.300781 -8.472656 3.984375 -8.1875 3.703125 -7.8125 C 3.421875 -7.445312 3.191406 -7.007812 3.015625 -6.5 C 2.847656 -6 2.765625 -5.441406 2.765625 -4.828125 C 2.765625 -3.234375 3.300781 -2.066406 4.375 -1.328125 C 4.625 -1.160156 4.890625 -1.023438 5.171875 -0.921875 C 5.453125 -0.828125 5.738281 -0.78125 6.03125 -0.78125 C 6.570312 -0.78125 7.082031 -0.921875 7.5625 -1.203125 C 8.039062 -1.492188 8.492188 -1.9375 8.921875 -2.53125 Z M 9.34375 -2.234375 "/></g></g></g><g clip-path="url(#0c34b202ef)"><path fill="#1e3a8a" d="M 134.90625 199.457031 C 130.277344 201.613281 125.128906 202.832031 119.675781 202.832031 C 117.203125 202.832031 114.792969 202.578125 112.460938 202.101562 C 96.039062 198.757812 83.675781 184.238281 83.675781 166.820312 C 83.675781 161.9375 84.644531 157.261719 86.417969 153.011719 L 92.1875 153.011719 C 96.375 153.011719 99.765625 156.40625 99.765625 160.589844 L 99.765625 189.40625 L 109.816406 189.40625 L 109.816406 167.183594 L 114.175781 172.792969 Z M 134.90625 199.457031 " fill-opacity="1" fill-rule="nonzero"/></g><g clip-path="url(#fa2b291de2)"><path fill="#1e3a8a" d="M 155.671875 166.820312 C 155.671875 172.476562 154.371094 177.835938 152.027344 182.605469 L 137.777344 182.605469 C 135.476562 182.605469 133.289062 181.558594 131.847656 179.753906 L 120.640625 165.726562 L 138.949219 144.230469 L 126.539062 144.230469 L 109.816406 164.617188 L 109.816406 132.183594 C 112.953125 131.296875 116.265625 130.820312 119.675781 130.820312 C 137.363281 130.820312 152.074219 143.582031 155.101562 160.398438 C 155.480469 162.476562 155.671875 164.632812 155.671875 166.820312 Z M 155.671875 166.820312 " fill-opacity="1" fill-rule="nonzero"/></g><g clip-path="url(#5fdb7efd01)"><path fill="#a8a9ad" d="M 134.90625 199.457031 C 130.277344 201.613281 125.128906 202.832031 119.675781 202.832031 C 117.203125 202.832031 114.792969 202.578125 112.460938 202.101562 L 99.78125 189.421875 L 109.832031 189.421875 L 109.832031 167.199219 Z M 134.90625 199.457031 " fill-opacity="1" fill-rule="nonzero"/></g><g clip-path="url(#7bc5653c57)"><path fill="#a8a9ad" d="M 155.671875 166.820312 C 155.671875 172.476562 154.371094 177.835938 152.027344 182.605469 L 137.777344 182.605469 C 135.476562 182.605469 133.289062 181.558594 131.847656 179.753906 L 120.640625 165.726562 L 138.949219 144.230469 L 155.117188 160.398438 C 155.480469 162.476562 155.671875 164.632812 155.671875 166.820312 Z M 155.671875 166.820312 " fill-opacity="1" fill-rule="nonzero"/></g></svg>