<svg xmlns="http://www.w3.org/2000/svg" xmlns:xlink="http://www.w3.org/1999/xlink" width="500" zoomAndPan="magnify" viewBox="0 0 375 374.999991" height="500" preserveAspectRatio="xMidYMid meet" version="1.0"><defs><clipPath id="688efa8582"><path d="M 116.738281 138 L 240 138 L 240 257.839844 L 116.738281 257.839844 Z M 116.738281 138 " clip-rule="nonzero"/></clipPath><clipPath id="26909c7f84"><path d="M 179 85.339844 L 289.238281 85.339844 L 289.238281 210 L 179 210 Z M 179 85.339844 " clip-rule="nonzero"/></clipPath><clipPath id="074575204d"><path d="M 155 172 L 240 172 L 240 257.839844 L 155 257.839844 Z M 155 172 " clip-rule="nonzero"/></clipPath><clipPath id="71cdd95228"><path d="M 205 117 L 289.238281 117 L 289.238281 210 L 205 210 Z M 205 117 " clip-rule="nonzero"/></clipPath></defs><g clip-path="url(#688efa8582)"><path fill="#1e3a8a" d="M 239.722656 250.078125 C 228.613281 255.25 216.246094 258.179688 203.160156 258.179688 C 197.226562 258.179688 191.441406 257.570312 185.847656 256.429688 C 146.433594 248.402344 116.757812 213.554688 116.757812 171.742188 C 116.757812 160.023438 119.078125 148.800781 123.339844 138.605469 L 137.1875 138.605469 C 147.234375 138.605469 155.375 146.746094 155.375 156.789062 L 155.375 225.957031 L 179.496094 225.957031 L 179.496094 172.617188 L 189.957031 186.085938 Z M 239.722656 250.078125 " fill-opacity="1" fill-rule="nonzero"/></g><g clip-path="url(#26909c7f84)"><path fill="#1e3a8a" d="M 289.5625 171.742188 C 289.5625 185.324219 286.441406 198.183594 280.808594 209.632812 L 246.609375 209.632812 C 241.089844 209.632812 235.839844 207.125 232.378906 202.785156 L 205.480469 169.117188 L 249.421875 117.527344 L 219.632812 117.527344 L 179.496094 166.453125 L 179.496094 88.613281 C 187.027344 86.480469 194.980469 85.339844 203.160156 85.339844 C 245.617188 85.339844 280.925781 115.96875 288.191406 156.332031 C 289.105469 161.316406 289.5625 166.492188 289.5625 171.742188 Z M 289.5625 171.742188 " fill-opacity="1" fill-rule="nonzero"/></g><g clip-path="url(#074575204d)"><path fill="#a8a9ad" d="M 239.722656 250.078125 C 228.613281 255.25 216.246094 258.179688 203.160156 258.179688 C 197.226562 258.179688 191.441406 257.570312 185.847656 256.429688 L 155.414062 225.992188 L 179.535156 225.992188 L 179.535156 172.65625 Z M 239.722656 250.078125 " fill-opacity="1" fill-rule="nonzero"/></g><g clip-path="url(#71cdd95228)"><path fill="#a8a9ad" d="M 289.5625 171.742188 C 289.5625 185.324219 286.441406 198.183594 280.808594 209.632812 L 246.609375 209.632812 C 241.089844 209.632812 235.839844 207.125 232.378906 202.785156 L 205.480469 169.117188 L 249.421875 117.527344 L 288.230469 156.332031 C 289.105469 161.316406 289.5625 166.492188 289.5625 171.742188 Z M 289.5625 171.742188 " fill-opacity="1" fill-rule="nonzero"/></g></svg>